<svg width="24" height="24" viewBox="0 0 24 24" fill="none" xmlns="http://www.w3.org/2000/svg">
<path d="M22.5281 8.41875H19.9969C19.9453 4.05 16.3781 0.515625 12 0.515625C7.62186 0.515625 4.05467 4.05 4.0078 8.41875H1.47655C0.581235 8.48906 0.487485 9.25781 0.53436 9.53437L2.76561 22.6875C2.8453 23.1469 3.24373 23.4844 3.7078 23.4844H20.2922C20.7609 23.4844 21.1594 23.1469 21.2344 22.6875L23.4703 9.53437C23.5172 9.25781 23.4047 8.48438 22.5281 8.41875ZM12 2.42812C15.3234 2.42812 18.0281 5.10469 18.0797 8.41406H5.9203C5.97186 5.10469 8.67655 2.42812 12 2.42812ZM19.4859 21.5719H4.51873L2.60624 10.3312H21.3937L19.4859 21.5719Z" fill="black"/>
<path d="M8.01094 14.5172H15.9844C16.5141 14.5172 16.9406 14.0906 16.9406 13.5609C16.9406 13.0312 16.5141 12.6047 15.9844 12.6047H8.01094C7.48125 12.6047 7.05469 13.0312 7.05469 13.5609C7.05469 14.0906 7.48594 14.5172 8.01094 14.5172Z" fill="black"/>
<path d="M8.01094 19.2984H15.9844C16.5141 19.2984 16.9406 18.8719 16.9406 18.3422C16.9406 17.8125 16.5141 17.3859 15.9844 17.3859H8.01094C7.48125 17.3859 7.05469 17.8125 7.05469 18.3422C7.05469 18.8719 7.48594 19.2984 8.01094 19.2984Z" fill="black"/>
</svg>
