<svg width="22" height="22" viewBox="0 0 22 22" fill="none" xmlns="http://www.w3.org/2000/svg">
<g clip-path="url(#clip0)">
<path d="M20.9678 6.96249L20.9709 6.99634L20.9762 7.0299C20.9828 7.07107 21.0864 7.76009 20.8031 8.95941L20.803 8.9597C20.3958 10.6855 19.4535 12.2665 18.0617 13.5289L10.94 19.8822L3.94183 13.5315L3.94126 13.531C2.54804 12.2686 1.60464 10.6863 1.19717 8.95966L1.19713 8.95948C0.913604 7.75905 1.01764 7.07074 1.02393 7.03208L1.02961 6.99717L1.0328 6.96195C1.31642 3.83614 3.4774 1.77258 5.99035 1.77258C7.66563 1.77258 9.17907 2.66431 10.076 4.19908L10.9299 5.66029L11.7979 4.20735C12.6991 2.69862 14.2895 1.77301 16.0098 1.77301C18.5231 1.77301 20.6838 3.83653 20.9678 6.96249Z" stroke="black" stroke-width="2"/>
</g>
<defs>
<clipPath id="clip0">
<rect width="22" height="22" fill="white"/>
</clipPath>
</defs>
</svg>
